<svg width="278" height="99" viewBox="0 0 278 99" fill="none" xmlns="http://www.w3.org/2000/svg">
<path d="M139.508 43.6884C139.639 41.1425 140.552 39.0658 141.978 37.4409V35.2773H140.082C136.247 35.2773 133.004 36.7458 131.117 40.065H131.004V35.6422H121.169V62.6046H131.004V51.7172C131.004 47.0945 132.36 43.5754 137.812 43.5754C138.412 43.5841 138.969 43.6102 139.508 43.6884ZM213.988 43.5841C214.805 41.2033 216.127 39.0745 217.849 37.3714V35.2686H215.953C212.118 35.2686 208.875 36.7371 206.979 40.0563H206.875V35.6422H197.031V62.6046H206.875V51.7172C206.875 47.0945 208.231 43.5754 213.692 43.5754L213.988 43.5841ZM159.482 42.5762C157.961 41.7855 155.856 41.2641 154.169 41.2641C153.039 41.2641 151.091 41.7333 151.091 43.1062C151.091 44.9483 154.169 45.209 155.526 45.4784C160.109 46.3733 163.578 48.4761 163.578 53.4637C163.578 60.554 156.926 63.5083 150.491 63.5083C146.543 63.5083 142.656 62.4048 139.299 60.4063L142.865 53.7243C144.865 55.0972 148.213 56.4614 150.647 56.4614C151.891 56.4614 153.726 55.8879 153.726 54.4108C153.726 52.308 150.647 52.1951 147.56 51.413C144.482 50.6223 141.404 49.1539 141.404 44.3227C141.404 37.7016 147.56 34.756 153.63 34.756C156.769 34.756 159.9 35.2252 162.761 36.4851L159.482 42.5762ZM247.354 62.6046H237.519V59.6069H237.414C235.684 62.2831 232.267 63.4909 229.032 63.4909C220.805 63.4909 215.031 56.8177 215.031 49.0843C215.031 41.3684 220.71 34.7386 228.927 34.7386C232.119 34.7386 235.475 35.8942 237.528 38.2577V35.6336H247.363L247.354 62.6046ZM225.188 49.1452C225.188 52.56 227.519 55.1841 231.51 55.1841C235.51 55.1841 237.832 52.56 237.832 49.1452C237.832 45.8346 235.51 43.0454 231.51 43.0454C227.519 43.0541 225.188 45.8346 225.188 49.1452ZM195.483 50.7266H174.77C174.77 54.6106 176.883 56.7134 180.935 56.7134C183.039 56.7134 184.553 56.0357 185.639 54.2457H195.101C193.535 60.6061 187.309 63.4996 180.987 63.4996C171.804 63.4996 164.935 58.4512 164.935 49.1539C164.935 40.1693 171.257 34.756 180.283 34.756C189.909 34.756 195.483 40.5429 195.483 49.736V50.7266ZM186.344 45.209C185.857 42.637 183.422 40.9513 180.779 40.9513C177.909 40.9513 175.544 42.4198 174.935 45.209H186.344ZM89.8723 48.676C89.8636 48.4413 89.8462 48.2154 89.8288 47.9895V47.9808C89.6114 45.4784 88.7766 43.141 87.3766 41.0208C86.7592 40.0911 86.0374 39.2309 85.2287 38.4488C84.0548 37.3193 82.7069 36.3895 81.1765 35.6596C78.8808 34.5648 76.3416 34.0087 73.6285 34.0087C73.3676 34.0087 73.0893 34.0087 72.8111 34.0261C70.9067 34.113 69.0632 34.4692 67.3327 35.1122C65.5848 35.7465 64.0718 36.572 62.8283 37.5712C62.5761 37.7711 62.2978 38.0144 62.0022 38.2924L61.7848 38.501L61.4978 38.8138L61.3587 38.9441L61.2891 39.0136L60.9413 39.3786C60.6891 39.6566 60.4456 39.9434 60.2108 40.2388L60.2021 40.2301C59.7239 40.8123 59.2891 41.4031 58.9673 41.9419C58.7499 42.2894 58.5325 42.637 58.3325 42.9933L55.4977 48.7281L55.3498 49.0148L55.0368 49.6491C54.4107 50.9091 53.7498 52.1603 53.002 53.1943C51.3411 55.0103 49.4628 55.9053 47.054 55.9053C46.8888 55.9053 46.7149 55.8966 46.5323 55.8879C45.0801 55.8271 43.8279 55.4882 42.7235 54.8365C42.6105 54.767 42.4887 54.6975 42.3757 54.6193C41.4713 54.0198 40.7843 53.2464 40.2626 52.2906C39.68 51.2045 39.4191 50.0836 39.4539 48.9106C39.4539 48.8758 39.4539 48.8497 39.4539 48.8237C39.5321 46.9468 40.2452 45.487 41.6887 44.2271C42.0365 43.9317 42.4018 43.671 42.7931 43.4364C42.8452 43.4016 42.8974 43.3756 42.9583 43.3495C44.0279 42.7673 45.254 42.4719 46.654 42.4719L47.0888 42.4806C49.3149 42.5675 51.028 43.2626 52.3933 44.6094L56.6803 36.9196C55.6542 36.2331 54.4977 35.6422 53.2194 35.1643C53.1672 35.147 53.1237 35.1296 53.0715 35.1122C52.915 35.0601 52.7672 34.9993 52.6107 34.9471C51.2541 34.4953 49.828 34.2172 48.3671 34.0869C48.3323 34.0782 48.2888 34.0782 48.2541 34.0695C48.028 34.0521 47.8019 34.0261 47.5758 34.0174C47.3323 34.0087 47.0888 34 46.8453 34H46.7062C44.0105 34.0087 41.5061 34.5648 39.2104 35.6509C36.6451 36.8848 34.5668 38.6834 33.019 41.0034C31.4798 43.3234 30.645 45.8954 30.5233 48.6586C30.5146 48.8932 30.5059 49.1278 30.5059 49.3624C30.5059 53.2291 31.9146 56.6265 34.7146 59.4766C37.6364 62.4656 41.4452 64.0818 46.0105 64.2729C46.3062 64.2816 46.5931 64.2903 46.8801 64.2903C49.4628 64.2903 51.8541 63.8298 54.002 62.9088C54.5411 62.6828 55.0542 62.4135 55.5933 62.1094C55.8803 61.9443 56.1586 61.7618 56.4281 61.5793L56.6281 61.449L56.9673 61.2144C57.3673 60.9189 57.7586 60.6061 58.1238 60.2759L58.2543 60.1543C58.4717 59.9458 58.6891 59.7372 58.8891 59.52L59.6543 58.6511L59.9499 58.2861L60.0891 58.0863L60.2282 57.8864C61.3674 55.9661 65.0892 48.9888 65.0892 48.9888V48.9714L65.3066 48.5456L65.4892 48.2154C66.037 47.2162 66.437 46.5124 66.9588 45.7651L66.9762 45.739C68.2023 43.9664 70.298 42.7065 72.7763 42.4893C76.9329 42.133 80.5765 44.8614 80.9069 48.5804C81.2373 52.308 78.1416 55.6099 73.985 55.9748C73.1154 56.053 72.2806 55.9922 71.4893 55.8184L71.4719 55.8271C68.4197 55.1928 66.4805 52.9684 65.524 51.9778L61.5239 59.3288C61.5239 59.3288 62.7674 60.5801 63.6196 61.2057C64.4718 61.8313 65.5761 62.4395 66.4544 62.8219C68.5849 63.7342 70.9067 64.2816 73.472 64.2816C73.7676 64.2816 73.7067 64.2816 74.0198 64.2729C78.5851 64.0818 82.6548 62.3353 85.5853 59.3375C88.3679 56.4962 89.8723 53.2464 89.8897 49.4058V49.2929C89.8897 49.1104 89.881 48.8932 89.8723 48.676ZM105.177 63.517C103.099 63.517 101.22 63.2737 99.5334 62.7958C97.8464 62.3179 96.4029 61.5533 95.2115 60.5106C94.0115 59.4679 93.0898 58.1384 92.4376 56.5309C91.7854 54.9234 91.4636 52.9771 91.4636 50.7179V35.6336H100.942V50.5876C100.942 52.2819 101.351 53.5071 102.16 54.2804C102.968 55.0451 104.003 55.4361 105.247 55.4361C106.525 55.4361 107.56 55.0798 108.36 54.3586C109.151 53.6461 109.56 52.4557 109.56 50.7874V35.6336H119.047V50.5094C119.047 52.8554 118.716 54.8452 118.047 56.4875C117.386 58.1297 116.447 59.4679 115.238 60.5106C114.029 61.5533 112.568 62.3092 110.847 62.7958C109.134 63.2737 107.247 63.517 105.177 63.517Z" fill="white"/>
</svg>
