<svg width="28" height="22" viewBox="0 0 28 22" fill="none" xmlns="http://www.w3.org/2000/svg">
<path d="M4.66667 0C3.42899 0 2.242 0.46357 1.36683 1.28873C0.491665 2.11389 0 3.23305 0 4.4V4.8422L14 11.9504L28 4.8444V4.4C28 3.23305 27.5083 2.11389 26.6332 1.28873C25.758 0.46357 24.571 0 23.3333 0H4.66667ZM28 7.3414L14.553 14.168C14.383 14.2543 14.193 14.2994 14 14.2994C13.807 14.2994 13.617 14.2543 13.447 14.168L0 7.3414V17.6C0 18.767 0.491665 19.8861 1.36683 20.7113C2.242 21.5364 3.42899 22 4.66667 22H23.3333C24.571 22 25.758 21.5364 26.6332 20.7113C27.5083 19.8861 28 18.767 28 17.6V7.3414Z" fill="white"/>
</svg>
