<svg width="32" height="33" viewBox="0 0 32 33" fill="none" xmlns="http://www.w3.org/2000/svg">
<circle cx="16" cy="16.4004" r="16" fill="#4E4D4D"/>
<path d="M16.0001 4.40039C9.3735 4.40039 4 9.90886 4 16.7042C4 22.1403 7.43839 26.7523 12.2064 28.3792C12.8061 28.4931 13.0263 28.1123 13.0263 27.7874C13.0263 27.494 13.0152 26.5247 13.01 25.4966C9.67157 26.2409 8.96712 24.045 8.96712 24.045C8.42125 22.6228 7.63473 22.2447 7.63473 22.2447C6.54596 21.481 7.7168 21.4967 7.7168 21.4967C8.92181 21.5835 9.55632 22.7646 9.55632 22.7646C10.6266 24.6456 12.3636 24.1018 13.0484 23.7874C13.1561 22.9922 13.4671 22.4494 13.8102 22.1422C11.1449 21.8311 8.34295 20.7761 8.34295 16.0616C8.34295 14.7183 8.81172 13.6207 9.57937 12.7591C9.45477 12.4492 9.04402 11.1978 9.69562 9.503C9.69562 9.503 10.7033 9.17232 12.9965 10.7642C13.9537 10.4916 14.9803 10.3549 16.0001 10.3502C17.0199 10.3549 18.0473 10.4916 19.0063 10.7642C21.2967 9.17232 22.303 9.503 22.303 9.503C22.9562 11.1978 22.5452 12.4492 22.4206 12.7591C23.1901 13.6207 23.6557 14.7183 23.6557 16.0616C23.6557 20.7873 20.8484 21.8278 18.1762 22.1324C18.6067 22.5142 18.9902 23.263 18.9902 24.4109C18.9902 26.0572 18.9763 27.3821 18.9763 27.7874C18.9763 28.1148 19.1923 28.4984 19.8006 28.3776C24.566 26.7489 28 22.1385 28 16.7042C28 9.90886 22.6273 4.40039 16.0001 4.40039Z" fill="white"/>
<path d="M8.58043 21.9815C8.55405 22.0421 8.46043 22.0602 8.37514 22.0187C8.28827 21.9789 8.23947 21.8964 8.26764 21.8357C8.29342 21.7734 8.38724 21.756 8.47392 21.7978C8.56099 21.8375 8.61058 21.9208 8.58043 21.9815Z" fill="white"/>
<path d="M9.06559 22.5319C9.00846 22.5857 8.89679 22.5607 8.82103 22.4756C8.74268 22.3907 8.728 22.2771 8.78592 22.2224C8.84483 22.1686 8.95312 22.1938 9.03167 22.2787C9.11002 22.3646 9.12529 22.4774 9.06559 22.5319Z" fill="white"/>
<path d="M9.53784 23.2335C9.46445 23.2854 9.34445 23.2367 9.27027 23.1284C9.19688 23.0201 9.19688 22.8902 9.27186 22.8381C9.34624 22.7861 9.46445 22.8329 9.53963 22.9404C9.61282 23.0505 9.61282 23.1805 9.53784 23.2335Z" fill="white"/>
<path d="M10.1848 23.9114C10.1192 23.985 9.97936 23.9652 9.87701 23.8648C9.77229 23.7665 9.74313 23.6271 9.80898 23.5535C9.87543 23.4796 10.0161 23.5004 10.1192 23.6001C10.2231 23.6981 10.2549 23.8385 10.1848 23.9114Z" fill="white"/>
<path d="M11.0774 24.3049C11.0485 24.4004 10.9138 24.4437 10.7781 24.4032C10.6426 24.3614 10.554 24.2497 10.5813 24.1532C10.6095 24.0572 10.7448 24.012 10.8814 24.0554C11.0167 24.097 11.1056 24.2079 11.0774 24.3049Z" fill="white"/>
<path d="M12.0576 24.378C12.061 24.4784 11.946 24.5618 11.8036 24.5636C11.6604 24.5668 11.5445 24.4855 11.5429 24.3867C11.5429 24.2852 11.6554 24.2027 11.7986 24.2002C11.941 24.1974 12.0576 24.2781 12.0576 24.378Z" fill="white"/>
<path d="M12.9699 24.22C12.9869 24.3181 12.8879 24.4187 12.7465 24.4456C12.6075 24.4714 12.4787 24.4109 12.4611 24.3136C12.4438 24.2132 12.5446 24.1125 12.6834 24.0865C12.8251 24.0614 12.9518 24.1204 12.9699 24.22Z" fill="white"/>
</svg>
