<svg width="32" height="33" viewBox="0 0 32 33" fill="none" xmlns="http://www.w3.org/2000/svg">
<path fill-rule="evenodd" clip-rule="evenodd" d="M0 16.4004C0 7.56384 7.16344 0.400391 16 0.400391C24.8366 0.400391 32 7.56384 32 16.4004C32 25.2369 24.8366 32.4004 16 32.4004C7.16344 32.4004 0 25.2369 0 16.4004Z" fill="#4E4D4D"/>
<path fill-rule="evenodd" clip-rule="evenodd" d="M16.0008 7.86719C13.6833 7.86719 13.3924 7.87732 12.4822 7.91874C11.5737 7.96034 10.9536 8.10417 10.4111 8.31519C9.84981 8.53315 9.37372 8.82471 8.8994 9.2992C8.42473 9.77352 8.13317 10.2496 7.9145 10.8107C7.70294 11.3534 7.55894 11.9737 7.51805 12.8818C7.47734 13.792 7.46667 14.0831 7.46667 16.4006C7.46667 18.7181 7.47699 19.0081 7.51823 19.9183C7.56001 20.8268 7.70383 21.4469 7.91468 21.9895C8.13282 22.5507 8.42437 23.0268 8.89887 23.5011C9.37301 23.9758 9.8491 24.2681 10.41 24.486C10.9529 24.6971 11.5732 24.8409 12.4815 24.8825C13.3917 24.9239 13.6824 24.934 15.9997 24.934C18.3175 24.934 18.6074 24.9239 19.5176 24.8825C20.4261 24.8409 21.0469 24.6971 21.5898 24.486C22.1509 24.2681 22.6263 23.9758 23.1004 23.5011C23.5751 23.0268 23.8667 22.5507 24.0853 21.9896C24.2951 21.4469 24.4391 20.8266 24.4818 19.9185C24.5227 19.0083 24.5333 18.7181 24.5333 16.4006C24.5333 14.0831 24.5227 13.7922 24.4818 12.882C24.4391 11.9735 24.2951 11.3534 24.0853 10.8109C23.8667 10.2496 23.5751 9.77352 23.1004 9.2992C22.6258 8.82453 22.1511 8.53297 21.5893 8.31519C21.0453 8.10417 20.4249 7.96034 19.5164 7.91874C18.6062 7.87732 18.3164 7.86719 15.9981 7.86719H16.0008ZM15.2353 9.40496C15.4625 9.4046 15.716 9.40496 16.0008 9.40496C18.2792 9.40496 18.5492 9.41314 19.449 9.45402C20.281 9.49207 20.7326 9.63109 21.0334 9.74789C21.4316 9.90256 21.7155 10.0875 22.014 10.3861C22.3127 10.6848 22.4976 10.9692 22.6526 11.3675C22.7694 11.6679 22.9086 12.1195 22.9464 12.9515C22.9873 13.851 22.9962 14.1213 22.9962 16.3986C22.9962 18.676 22.9873 18.9462 22.9464 19.8458C22.9084 20.6778 22.7694 21.1293 22.6526 21.4298C22.4979 21.828 22.3127 22.1116 22.014 22.4101C21.7153 22.7087 21.4318 22.8936 21.0334 23.0483C20.7329 23.1656 20.281 23.3043 19.449 23.3423C18.5494 23.3832 18.2792 23.3921 16.0008 23.3921C13.7222 23.3921 13.4521 23.3832 12.5526 23.3423C11.7205 23.3039 11.269 23.1649 10.968 23.0481C10.5698 22.8935 10.2853 22.7086 9.98666 22.4099C9.68799 22.1112 9.5031 21.8275 9.34808 21.4291C9.23128 21.1286 9.09208 20.6771 9.05421 19.8451C9.01332 18.9455 9.00514 18.6753 9.00514 16.3965C9.00514 14.1177 9.01332 13.8489 9.05421 12.9493C9.09226 12.1173 9.23128 11.6658 9.34808 11.365C9.50275 10.9668 9.68799 10.6823 9.98666 10.3836C10.2853 10.085 10.5698 9.90007 10.968 9.74505C11.2688 9.62772 11.7205 9.48905 12.5526 9.45082C13.3398 9.41527 13.6448 9.4046 15.2353 9.40282V9.40496ZM20.5558 10.8219C19.9905 10.8219 19.5318 11.28 19.5318 11.8455C19.5318 12.4109 19.9905 12.8695 20.5558 12.8695C21.1212 12.8695 21.5799 12.4109 21.5799 11.8455C21.5799 11.2802 21.1212 10.8219 20.5558 10.8219ZM16.0008 12.0183C13.5807 12.0183 11.6186 13.9805 11.6186 16.4006C11.6186 18.8207 13.5807 20.782 16.0008 20.782C18.4209 20.782 20.3824 18.8207 20.3824 16.4006C20.3824 13.9805 18.4209 12.0183 16.0008 12.0183ZM16.0008 13.5561C17.5717 13.5561 18.8453 14.8295 18.8453 16.4006C18.8453 17.9714 17.5717 19.2451 16.0008 19.2451C14.4298 19.2451 13.1563 17.9714 13.1563 16.4006C13.1563 14.8295 14.4298 13.5561 16.0008 13.5561Z" fill="white"/>
</svg>
