<svg width="32" height="33" viewBox="0 0 32 33" fill="none" xmlns="http://www.w3.org/2000/svg">
<path fill-rule="evenodd" clip-rule="evenodd" d="M0 16.4004C0 7.56384 7.16344 0.400391 16 0.400391C24.8366 0.400391 32 7.56384 32 16.4004C32 25.2369 24.8366 32.4004 16 32.4004C7.16344 32.4004 0 25.2369 0 16.4004Z" fill="#4E4D4D"/>
<path d="M11.5459 10.2822C11.5223 9.21399 10.7584 8.40039 9.51803 8.40039C8.27761 8.40039 7.46667 9.21399 7.46667 10.2822C7.46667 11.3283 8.25365 12.1653 9.47096 12.1653H9.49413C10.7584 12.1653 11.5459 11.3283 11.5459 10.2822Z" fill="white"/>
<path d="M11.307 13.6523H7.68109V24.5468H11.307V13.6523Z" fill="white"/>
<path d="M20.2088 13.3965C22.5948 13.3965 24.3836 14.9539 24.3836 18.3002L24.3835 24.5468H20.7577V18.7182C20.7577 17.2542 20.233 16.2552 18.9204 16.2552C17.9186 16.2552 17.3219 16.9287 17.0599 17.5792C16.964 17.8123 16.9405 18.1371 16.9405 18.4627V24.5471H13.3141C13.3141 24.5471 13.3619 14.6749 13.3141 13.6526H16.9405V15.1957C17.4217 14.4539 18.2836 13.3965 20.2088 13.3965Z" fill="white"/>
</svg>
