<svg width="278" height="99" viewBox="0 0 278 99" fill="none" xmlns="http://www.w3.org/2000/svg">
<path d="M34.4126 59.7685V68.0994C34.4126 69.4879 34.9021 71.4482 37.3496 71.4482C39.6339 71.4482 40.4498 69.8963 40.4498 67.9361V59.6868C40.4498 59.1967 40.205 58.9517 39.9603 58.7884H42.163C41.9183 58.9517 41.6735 59.1967 41.6735 59.6868L41.5919 67.8544C41.5919 71.2848 39.7155 72.5916 37.1048 72.5916C34.9021 72.5916 32.0467 71.5298 32.0467 68.0178V59.7685C32.0467 59.2784 31.7203 59.0334 31.4756 58.87H35.1468C34.7389 59.0334 34.4126 59.2784 34.4126 59.7685ZM66.3933 59.7685C66.3933 59.2784 66.2301 59.0334 65.9038 58.87H68.025C67.7802 59.0334 67.5355 59.2784 67.5355 59.7685V73C67.5355 73 58.4797 61.7287 58.4797 61.5653V71.6115C58.4797 72.0199 58.7245 72.3466 58.9692 72.5099H56.848C57.0928 72.3466 57.3375 72.0199 57.3375 71.6115V60.8303C57.3375 60.0135 57.3375 60.0135 57.0112 59.6051C56.848 59.3601 56.5217 59.1151 56.1954 58.87H59.4587L66.4749 67.6911L66.3933 59.7685ZM86.5444 58.87C86.2181 59.0334 86.0549 59.2784 86.0549 59.7685V71.5298C86.0549 71.9382 86.2181 72.2649 86.5444 72.4283H83.1179C83.4442 72.2649 83.6074 71.9382 83.6074 71.5298V59.7685C83.6074 59.2784 83.4442 59.0334 83.1179 58.87H86.5444ZM109.633 59.8501C109.796 59.3601 109.714 59.0334 109.225 58.87H111.509C111.019 59.1967 111.019 59.3601 110.775 59.8501C110.448 60.6669 105.88 72.9183 105.88 72.9183C105.88 72.9183 100.903 60.5852 100.577 59.8501C100.332 59.4418 100.087 59.1151 99.5162 58.87H103.677C103.187 59.0334 103.106 59.5234 103.269 59.9318C103.269 60.0952 106.451 68.3445 106.451 68.3445C106.451 68.3445 109.551 60.0135 109.633 59.8501ZM132.557 60.5852C132.231 60.0952 131.823 59.9318 131.089 59.8501H127.907V64.424H130.763C131.007 64.424 131.334 64.0973 131.415 63.8523V65.9759C131.334 65.7308 131.007 65.4041 130.763 65.4041H127.907V71.2848C128.315 71.3665 129.457 71.4482 130.355 71.3665C131.986 71.3665 132.721 71.3665 133.455 70.1413L133.047 72.4283H124.889C125.215 72.2649 125.46 72.0199 125.46 71.5298V59.7685C125.46 59.2784 125.215 59.0334 124.889 58.87H132.476L132.557 60.5852ZM153.361 65.5675C154.667 65.7308 155.238 66.6293 155.482 67.0376C155.482 67.0376 157.767 70.7947 158.419 71.6115C158.746 72.1016 159.643 72.4283 159.643 72.4283H157.196C156.461 72.4283 155.89 71.9382 155.482 71.4482C154.667 70.223 153.769 68.7528 153.116 67.6094C152.627 66.7926 152.219 65.9759 151.403 65.9759H150.587V71.4482C150.587 71.8565 150.832 72.1832 151.077 72.3466H147.65C147.977 72.1832 148.14 71.8565 148.14 71.4482V59.7685C148.14 59.2784 147.977 59.0334 147.65 58.87H151.73C155.646 58.87 156.543 60.9119 156.543 62.2188C156.543 64.3423 154.667 65.4041 153.361 65.5675ZM150.506 59.8501V65.0774H151.322C152.627 65.0774 153.932 64.3423 153.932 62.3004C153.932 61.402 153.443 59.7685 151.566 59.7685C151.077 59.7685 150.506 59.8501 150.506 59.8501ZM180.365 68.4261C180.365 70.9581 178.244 72.5916 175.96 72.5916C174.247 72.5916 173.023 71.9382 172.289 71.6115L172.207 68.2628C172.533 69.6513 173.676 71.5298 175.634 71.5298C177.51 71.5298 178.081 70.1413 178.081 69.1612C178.081 67.2827 176.449 66.956 174.736 65.9759C173.023 64.9957 172.207 63.8523 172.207 62.3821C172.207 59.6868 174.573 58.625 176.368 58.625C177.02 58.625 178.244 58.7884 179.223 59.3601L179.305 62.3004C179.06 61.2386 177.999 59.6051 176.123 59.6051C174.655 59.6051 174.083 60.6669 174.083 61.4837C174.083 62.7088 174.899 63.1989 176.694 64.0156C178.571 64.9957 180.365 65.6491 180.365 68.4261ZM198.558 58.87C198.232 59.0334 198.069 59.2784 198.069 59.7685V71.5298C198.069 71.9382 198.232 72.2649 198.558 72.4283H195.132C195.458 72.2649 195.621 71.9382 195.621 71.5298V59.7685C195.621 59.2784 195.458 59.0334 195.132 58.87H198.558ZM219.117 59.8501V71.5298C219.117 71.9382 219.362 72.2649 219.607 72.4283H216.262C216.588 72.2649 216.752 71.9382 216.752 71.5298V59.8501C215.365 59.8501 213.733 60.0135 213.733 60.0135C213.243 60.0135 212.917 60.5036 212.754 60.8303V58.87H223.115V60.8303C222.952 60.5036 222.707 60.0952 222.218 60.0135C222.218 60.0135 220.504 59.8501 219.117 59.8501ZM247.101 58.87C246.53 59.0334 246.04 59.6051 245.877 60.0952L242.858 66.1392V71.5298C242.858 71.9382 243.185 72.2649 243.511 72.4283H239.758C240.003 72.2649 240.411 72.0199 240.411 71.5298V66.2209L236.74 59.7685C236.495 59.2784 236.25 59.1151 235.76 58.7884H240.003C239.513 58.9517 239.187 59.1151 239.677 60.0135L242.369 64.9141L244.898 59.7685C245.143 59.3601 245.061 58.87 244.49 58.7884L247.101 58.87Z" fill="white"/>
<path d="M46.0212 27.5709H50.4255C50.0177 27.8156 49.773 28.2234 49.773 28.7943V45.1064C49.773 45.6773 50.0177 46.0851 50.4255 46.3298H45.695C46.1028 46.0851 46.3475 45.6773 46.3475 45.1064V31.2411C46.3475 30.9149 46.429 30.5887 46.429 30.5887L46.1844 31.2411L39.9858 46.8191L33.6241 31.6489L33.3794 30.9149V45.1064C33.3794 45.6773 33.7056 46.0851 34.1134 46.3298H31.2588C31.6666 46.0851 31.9113 45.6773 31.9113 45.1064V28.7943C31.9113 28.305 31.5035 27.734 31.0957 27.5709H35.7446L40.9645 40.2943L46.0212 27.5709ZM59.4787 27.5709C59.0709 27.8156 58.8262 28.1418 58.8262 28.7943V45.1064C58.8262 45.6773 59.0709 46.0851 59.4787 46.3298H54.7482C55.156 46.0851 55.4007 45.6773 55.4007 45.1064V28.7943C55.4007 28.1418 55.156 27.734 54.7482 27.5709H59.4787ZM79.6241 33.0355C77.9929 29.2021 74.9751 28.7943 73.6702 28.7943C69.1844 28.7943 66.656 32.2199 66.656 36.7057C66.656 40.539 68.4503 45.1879 73.9148 45.1879C75.1383 45.1879 78.156 44.7801 79.8688 40.9468C79.9503 40.8652 79.6241 44.9433 79.6241 44.9433C77.4219 46.2482 75.1383 46.7376 72.9361 46.7376C67.7978 46.7376 63.1489 42.9858 63.1489 37.1135C63.1489 32.3014 66.5744 27.3262 73.2624 27.3262C75.3829 27.3262 77.4219 27.734 79.4609 28.7943C79.3794 28.7128 79.7056 33.117 79.6241 33.0355ZM95.039 27.5709H99.7695C99.3617 27.8156 99.0354 28.1418 99.0354 28.7943V45.1064C99.0354 45.6773 99.3617 46.0851 99.7695 46.3298H95.039C95.4468 46.0851 95.6914 45.6773 95.6914 45.1064V36.7057H87.5354V45.1879C87.5354 45.7589 87.7801 46.1667 88.1879 46.4113H83.4574C83.8652 46.1667 84.1099 45.7589 84.1099 45.1879V28.8759C84.1099 28.2234 83.8652 27.8156 83.4574 27.6525H88.1879C87.7801 27.8972 87.5354 28.2234 87.5354 28.8759V35.4007H95.6914V28.8759C95.6914 28.2234 95.4468 27.8156 95.039 27.5709ZM108.823 27.5709C108.415 27.8156 108.17 28.1418 108.17 28.7943V45.1064C108.17 45.6773 108.415 46.0851 108.823 46.3298H104.092C104.5 46.0851 104.745 45.6773 104.745 45.1064V28.7943C104.745 28.1418 104.5 27.734 104.092 27.5709H108.823ZM128.805 28.7128L128.968 33.117C127.663 29.3652 124.319 28.7943 123.014 28.7943C118.528 28.7943 116 32.2199 116 36.7057C116 40.539 117.794 45.1879 123.259 45.1879C123.83 45.1879 125.379 45.1064 126.603 44.2908V39.4787C126.603 38.8262 126.358 38.4184 125.95 38.1738H130.681C130.273 38.4184 130.028 38.8262 130.028 39.4787V43.5567C130.028 44.1277 130.355 44.617 130.436 44.6986C128.234 46.0035 124.482 46.7376 122.362 46.7376C117.142 46.7376 112.493 42.9858 112.493 37.1135C112.493 32.3014 115.918 27.3262 122.688 27.3262C124.808 27.2447 126.684 27.8156 128.805 28.7128ZM147.972 45.0248C148.216 45.5957 148.379 45.922 149.277 46.4113H143.649C144.301 46.0035 144.464 45.5957 144.301 45.0248C144.22 44.7801 143.567 43.0674 142.833 41.1915H136.39C135.574 43.0674 135.004 44.6986 134.922 45.0248C134.677 45.6773 134.84 46.0851 135.493 46.4113H131.904C132.638 45.922 132.883 45.5957 133.128 45.0248C133.617 43.9645 140.55 27 140.55 27C140.55 27 147.482 44.0461 147.972 45.0248ZM142.181 39.805C140.957 36.7057 139.489 33.0355 139.489 33.0355C139.489 33.0355 137.695 37.766 136.879 39.805H142.181ZM164.202 28.7943C164.202 28.1418 163.957 27.734 163.55 27.5709H166.486C166.078 27.8156 165.833 28.1418 165.833 28.7943V47.1454C165.833 47.1454 153.191 31.4858 153.191 31.2411V45.1064C153.191 45.6773 153.518 46.0851 153.925 46.3298H150.908C151.316 46.0851 151.56 45.6773 151.56 45.1064V30.344C151.56 29.2837 151.56 29.2021 151.071 28.6312C150.826 28.305 150.418 27.8972 149.847 27.5709H154.333L164.039 39.7234V28.7943H164.202ZM187.936 40.8652C187.936 44.2908 185.081 46.656 181.819 46.656C179.454 46.656 177.66 45.7589 176.762 45.3511L176.599 40.7021C177.089 42.6596 178.638 45.2695 181.411 45.2695C184.021 45.2695 184.837 43.3121 184.837 41.9255C184.837 39.234 182.553 38.9078 180.188 37.5213C177.741 36.1348 176.681 34.5851 176.681 32.5461C176.681 28.7943 180.025 27.2447 182.39 27.2447C183.287 27.2447 185 27.4078 186.386 28.305L186.55 32.383C186.223 30.9149 184.674 28.7128 182.145 28.7128C180.188 28.7128 179.372 30.1809 179.372 31.4043C179.372 33.117 180.514 33.7695 182.961 34.9113C185.408 36.1348 187.936 37.0319 187.936 40.8652ZM198.457 28.9574V45.1879C198.457 45.7589 198.784 46.1667 199.11 46.4113H194.379C194.787 46.1667 195.032 45.7589 195.032 45.1879V28.9574C193.074 28.9574 190.791 29.1206 190.791 29.1206C190.138 29.1206 189.73 29.773 189.486 30.2624V27.5709H203.922V30.2624C203.677 29.773 203.351 29.2021 202.699 29.1206C202.78 29.2021 200.333 28.9574 198.457 28.9574ZM217.706 45.0248C217.95 45.5957 218.113 45.922 219.011 46.4113H213.383C214.035 46.0035 214.199 45.5957 214.035 45.0248C213.954 44.7801 213.301 43.0674 212.567 41.1915H206.124C205.308 43.0674 204.738 44.6986 204.656 45.0248C204.411 45.6773 204.574 46.0851 205.227 46.4113H201.638C202.372 45.922 202.617 45.5957 202.862 45.0248C203.351 43.9645 210.284 27 210.284 27C210.284 27 217.216 44.0461 217.706 45.0248ZM211.915 39.805C210.691 36.7057 209.223 33.0355 209.223 33.0355C209.223 33.0355 207.429 37.766 206.613 39.805H211.915ZM225.862 28.9574V45.1879C225.862 45.7589 226.188 46.1667 226.514 46.4113H221.865C222.273 46.1667 222.518 45.7589 222.518 45.1879V28.9574C220.56 28.9574 218.277 29.1206 218.277 29.1206C217.624 29.1206 217.216 29.773 216.972 30.2624V27.5709H231.408V30.2624C231.163 29.773 230.837 29.2021 230.184 29.1206C230.184 29.2021 227.738 28.9574 225.862 28.9574ZM244.865 30.0177C244.376 29.2837 243.805 29.039 242.826 29.039C242.011 28.9574 238.34 28.9574 238.34 28.9574V35.3191H242.337C242.663 35.3191 243.152 34.9113 243.316 34.5035V37.4397C243.152 37.0319 242.745 36.6241 242.337 36.6241H238.34V44.7801C238.83 44.8617 240.461 44.9433 241.766 44.9433C244.05 44.8617 245.11 44.9433 246.089 43.2305L245.518 46.4113H234.181C234.589 46.1667 234.996 45.8404 234.996 45.1879V28.8759C234.996 28.2234 234.589 27.8156 234.181 27.6525H244.784L244.865 30.0177Z" fill="white"/>
<path d="M30.9004 51.1499H246.525V52.8749H30.9004V51.1499Z" fill="white"/>
</svg>
