<svg width="278" height="99" viewBox="0 0 278 99" fill="none" xmlns="http://www.w3.org/2000/svg">
<path d="M57.0952 41.2804C57.0952 40.2794 56.7723 39.5045 56.0297 39.0524C55.5777 38.7941 54.6736 38.6973 53.8986 38.6973H48.3772V49.837H54.383C55.7714 49.837 56.8692 50.1599 56.9661 51.3869H57.0952V41.2804Z" fill="#1E1E1E"/>
<path d="M57.0952 41.2804C57.0952 40.2794 56.7723 39.5045 56.0297 39.0524C55.5777 38.7941 54.6736 38.6973 53.8986 38.6973H48.3772V49.837H54.383C55.7714 49.837 56.8692 50.1599 56.9661 51.3869H57.0952V41.2804Z" stroke="white" stroke-width="1.057" stroke-miterlimit="3.8637"/>
<path d="M57.0947 41.2801C57.0947 40.2792 57.4176 39.5042 58.1603 39.0522C58.6123 38.7939 59.7101 38.697 60.4528 38.697H66.0065V49.8367H59.9684C58.58 49.8367 57.2885 50.1596 57.2239 51.3866H57.0947V41.2801Z" fill="#1E1E1E"/>
<path d="M57.0947 41.2801C57.0947 40.2792 57.4176 39.5042 58.1603 39.0522C58.6123 38.7939 59.7101 38.697 60.4528 38.697H66.0065V49.8367H59.9684C58.58 49.8367 57.2885 50.1596 57.2239 51.3866H57.0947V41.2801Z" stroke="white" stroke-width="1.057" stroke-miterlimit="3.8637"/>
<path d="M67.1686 39.5369V51.3224H58.6443L58.5474 51.5807C58.3859 51.9359 58.1276 52.291 57.1912 52.291C56.2549 52.291 55.9966 51.9359 55.8351 51.5807L55.7382 51.3224H47.2139V39.5369H46.439V39.8921L45.6964 39.666C45.5995 39.3754 45.3412 39.1494 45.0183 39.1494C44.6308 39.1494 44.3079 39.4723 44.3079 39.8598C44.3079 40.2472 44.6308 40.5701 45.0183 40.5701C45.1797 40.5701 45.3412 40.5056 45.4703 40.4087L46.439 40.6993V41.6357L45.6964 41.5065C45.5995 41.2482 45.3412 41.0868 45.0506 41.0868C44.6631 41.0868 44.3402 41.4096 44.3402 41.7971C44.3402 42.1846 44.6631 42.5075 45.0506 42.5075C45.2443 42.5075 45.438 42.4106 45.5672 42.2814L46.439 42.4429V43.4116L45.6964 43.3793C45.5672 43.1855 45.3412 43.0241 45.0829 43.0241C44.6954 43.0241 44.3725 43.347 44.3725 43.7345C44.3725 44.1219 44.6954 44.4448 45.0829 44.4448C45.3089 44.4448 45.5349 44.3157 45.6641 44.1542L46.439 44.1865V45.2197L45.6641 45.252C45.5349 45.0583 45.3412 44.9614 45.0829 44.9614C44.6954 44.9614 44.3725 45.2843 44.3725 45.6718C44.3725 46.0593 44.6954 46.3822 45.0829 46.3822C45.3412 46.3822 45.5672 46.253 45.6641 46.0593L46.4067 46.027V46.9956L45.5672 47.1248C45.438 46.9956 45.2443 46.8988 45.0506 46.8988C44.6631 46.8988 44.3402 47.2217 44.3402 47.6091C44.3402 47.9966 44.6631 48.3195 45.0506 48.3195C45.3412 48.3195 45.5995 48.1581 45.6964 47.8997L46.4067 47.7706V48.707L45.4703 48.9976C45.3412 48.9007 45.1797 48.8361 45.0183 48.8361C44.6308 48.8361 44.3079 49.159 44.3079 49.5465C44.3079 49.9339 44.6308 50.2568 45.0183 50.2568C45.3412 50.2568 45.5995 50.0308 45.6964 49.7402L46.4067 49.5142V50.4183L45.3735 50.8703C45.2766 50.8057 45.1474 50.7412 44.986 50.7412C44.5985 50.7412 44.2756 51.0641 44.2756 51.4515C44.2756 51.839 44.5985 52.1619 44.986 52.1619C45.3412 52.1619 45.6318 51.9036 45.6641 51.5807L46.3744 51.2578V52.0973H55.2862C55.6414 52.7108 56.2549 53.0337 57.1912 53.0337C58.1276 53.0337 58.7411 52.7108 59.0963 52.0973H67.9112V39.5369H67.1686Z" fill="white"/>
<path d="M51.3797 35.6299C49.6038 35.6299 48.1508 35.9205 48.1508 36.2434C48.1508 36.5986 49.6038 36.8569 51.3797 36.8569C53.1556 36.8569 54.6086 36.5663 54.6086 36.2434C54.6086 35.8882 53.1878 35.6299 51.3797 35.6299Z" fill="white"/>
<path d="M55.8355 31.755L53.9627 33.0789L53.9304 33.2081L54.3825 33.4018C54.4793 33.4341 54.4793 33.5309 54.4148 33.5632L53.2524 34.5642H53.1555L52.316 33.3372C52.2514 33.2726 52.2837 33.1758 52.3806 33.1758L52.9295 33.0789V32.9497L51.4765 30.9155H51.2504L49.7974 32.9497V33.0789L50.3464 33.1758C50.4432 33.208 50.4755 33.2726 50.4109 33.3372L49.5714 34.5642H49.4745L48.3767 33.5632C48.3444 33.5309 48.3444 33.4664 48.409 33.4018L48.8611 33.2081L48.8288 33.0789L46.8914 31.755L46.73 31.8196L47.8601 35.3068C48.4413 35.0485 49.7651 34.8548 51.315 34.8548C52.8649 34.8548 54.1887 35.0485 54.7699 35.3068L55.9001 31.8196L55.8355 31.755Z" fill="white"/>
<path d="M57.192 58.9424C55.4161 58.9424 53.9631 59.233 53.9631 59.5559C53.9631 59.9111 55.4161 60.1694 57.192 60.1694C58.9679 60.1694 60.4209 59.8788 60.4209 59.5559C60.3887 59.233 58.9679 58.9424 57.192 58.9424Z" fill="white"/>
<path d="M61.6152 55.0678L59.7424 56.3916V56.5208L60.1945 56.7145C60.2914 56.7468 60.2914 56.8437 60.2268 56.876L59.0644 57.8769H58.9675L58.128 56.6499C58.0634 56.5854 58.0957 56.4885 58.1926 56.4885L58.7415 56.3916V56.2625L57.2885 54.2283H57.0625L55.6094 56.2625V56.3916L56.1584 56.4885C56.2552 56.5208 56.2875 56.5854 56.2229 56.6499L55.3834 57.8769H55.2866L54.1887 56.876C54.1564 56.8437 54.1564 56.7468 54.221 56.7145L54.6731 56.5208V56.3916L52.7357 55.0678L52.5743 55.1324L53.7044 58.6196C54.2856 58.3613 55.6095 58.1675 57.1593 58.1675C58.7092 58.1675 60.033 58.3613 60.6143 58.6196L61.7444 55.1324L61.6152 55.0678Z" fill="white"/>
<path d="M62.9391 35.6299C61.1632 35.6299 59.7102 35.9205 59.7102 36.2434C59.7102 36.5986 61.1632 36.8569 62.9391 36.8569C64.715 36.8569 66.168 36.5663 66.168 36.2434C66.168 35.8882 64.715 35.6299 62.9391 35.6299Z" fill="white"/>
<path d="M67.3949 31.755L65.5222 33.0789L65.4899 33.2081L65.9419 33.4018C66.0388 33.4341 66.0388 33.5309 65.9742 33.5632L64.8118 34.5642H64.7149L63.8754 33.3372C63.8109 33.2726 63.8431 33.1758 63.94 33.1758L64.4889 33.0789V32.9497L63.0359 30.9155H62.8099L61.3569 32.9497V33.0789L61.9058 33.1758C62.0027 33.208 62.035 33.2726 61.9704 33.3372L61.1309 34.5642H61.034L59.9362 33.5632C59.9039 33.5309 59.9039 33.4664 59.9685 33.4018L60.4205 33.2081L60.3882 33.0789L58.4509 31.755L58.2894 31.8196L59.4195 35.3068C60.0007 35.0485 61.3246 34.8548 62.8745 34.8548C64.4243 34.8548 65.7482 35.0485 66.3294 35.3068L67.4595 31.8196L67.3949 31.755Z" fill="white"/>
<path d="M49.9265 40.5054C50.2171 40.5054 50.4755 40.57 50.6369 40.7314C50.7661 40.8283 50.8629 41.022 50.8629 41.248C50.8629 41.8615 50.4109 42.1198 49.8297 42.1198H49.1839V42.023C49.3776 42.023 49.3776 41.9907 49.3776 41.7324V40.8928C49.3776 40.6345 49.3453 40.6022 49.1839 40.6022V40.5054H49.9265ZM49.8297 41.7001C49.8297 41.9261 49.8943 41.9584 49.9911 41.9584C50.2171 41.9584 50.4109 41.7324 50.4109 41.2803C50.4109 40.7637 50.1526 40.6022 49.9265 40.6022C49.862 40.6022 49.8297 40.6022 49.8297 40.6345C49.8297 40.6345 49.8297 40.6991 49.8297 40.7637V41.7001Z" fill="white"/>
<path d="M52.7358 41.2804C52.7358 41.7971 52.3806 42.1199 51.8963 42.1199C51.4119 42.1199 51.0891 41.7648 51.0891 41.3127C51.0891 40.9252 51.3474 40.4409 51.9286 40.4409C52.3806 40.4409 52.7358 40.7961 52.7358 41.2804ZM51.5411 41.2159C51.5411 41.6679 51.7025 41.9908 51.9609 41.9908C52.1869 41.9908 52.2837 41.7971 52.2837 41.345C52.2837 40.8607 52.1223 40.5701 51.8963 40.5701C51.7025 40.5701 51.5411 40.7961 51.5411 41.2159Z" fill="white"/>
<path d="M54.8987 40.5054V40.6022C54.705 40.6345 54.705 40.6345 54.705 40.8928L54.7373 41.7001C54.7373 41.9584 54.7373 41.9907 54.931 41.9907V42.0875H54.1561V41.9907C54.3498 41.9584 54.3498 41.9584 54.3498 41.7001V40.8283L53.8655 42.0553H53.7363L53.2843 40.9251L53.252 41.474C53.252 41.7001 53.252 41.7969 53.252 41.8938C53.252 41.9907 53.3165 42.023 53.478 42.023V42.1198H52.8645V42.023C52.9937 42.023 53.0259 41.9907 53.0582 41.8938C53.0582 41.8292 53.0905 41.7001 53.0905 41.474L53.1228 40.9897C53.1551 40.6668 53.1228 40.6668 52.9291 40.6345V40.5377H53.5103L53.93 41.5063L54.3175 40.5377H54.8987V40.5054Z" fill="white"/>
<path d="M55.7063 41.7001C55.7063 41.9584 55.7386 41.9907 55.9001 41.9907V42.0875H55.0928V41.9907C55.2543 41.9907 55.2866 41.9584 55.2866 41.7001V40.8928C55.2866 40.6345 55.2543 40.6022 55.0928 40.6022V40.5054H55.9001V40.6022C55.7386 40.6022 55.7063 40.6345 55.7063 40.8928V41.7001Z" fill="white"/>
<path d="M51.7347 45.0581H51.5087L50.6046 43.8956V44.3477C50.6046 44.606 50.6046 44.7352 50.6369 44.832C50.6369 44.9289 50.7015 44.9612 50.8629 44.9612V45.0581H50.2495V44.9612C50.3463 44.9612 50.4109 44.9289 50.4432 44.832C50.4432 44.7675 50.4755 44.606 50.4755 44.3477V43.8956C50.4755 43.7019 50.4755 43.6696 50.4109 43.605C50.3786 43.5405 50.314 43.5405 50.2172 43.5405V43.4436H50.7661L51.5733 44.4769V44.154C51.5733 43.8957 51.5733 43.7665 51.541 43.6696C51.541 43.5728 51.4764 43.5405 51.315 43.5405V43.4436H51.9285V43.5405C51.7993 43.5405 51.7347 43.5728 51.7347 43.6696C51.7347 43.7342 51.7025 43.8957 51.7025 44.154V45.0581H51.7347Z" fill="white"/>
<path d="M52.7361 45.0581C52.5746 44.606 52.3486 44.0248 52.2517 43.7665C52.1549 43.5728 52.1226 43.5405 51.9934 43.5405V43.4436H52.8006V43.5405H52.7038C52.6069 43.5405 52.6069 43.5728 52.6392 43.6696C52.6715 43.7988 52.8652 44.2831 52.9621 44.5414C53.0267 44.3477 53.1881 43.8634 53.2204 43.7342C53.285 43.5728 53.2527 43.5728 53.1558 43.5405H53.0912V43.4436H53.6724V43.5405C53.5433 43.5728 53.511 43.5728 53.4141 43.7988C53.4141 43.8311 53.0912 44.5737 52.9298 45.0581H52.7361Z" fill="white"/>
<path d="M53.8336 44.5415C53.8981 44.6707 54.0273 44.9613 54.2856 44.9613C54.4148 44.9613 54.5116 44.8644 54.5116 44.703C54.5116 44.5738 54.4148 44.477 54.2533 44.4124L54.221 44.3801C54.0273 44.2832 53.8013 44.1541 53.8013 43.8958C53.8013 43.6052 53.995 43.3792 54.3825 43.3792C54.447 43.3792 54.5439 43.3791 54.6085 43.4114C54.6731 43.4114 54.7054 43.4437 54.7377 43.4437C54.7377 43.5406 54.7699 43.6697 54.8022 43.8312L54.7054 43.8635C54.6408 43.702 54.5762 43.5406 54.3825 43.5406C54.2533 43.5406 54.1564 43.6375 54.1564 43.7666C54.1564 43.8958 54.2533 43.9604 54.4148 44.0249L54.4793 44.0572C54.7054 44.1541 54.8991 44.2832 54.8991 44.5738C54.8991 44.8644 54.6408 45.0905 54.2856 45.0905C54.1887 45.0905 54.0919 45.0582 54.0273 45.0582C53.9627 45.0259 53.8981 45.0259 53.8659 44.9936C53.8336 44.8644 53.8013 44.7353 53.769 44.5738L53.8336 44.5415Z" fill="white"/>
<path d="M50.6372 47.577C50.6372 47.8353 50.6695 47.8676 50.8309 47.8676V47.9645H50.0237V47.8676C50.1851 47.8676 50.2174 47.8353 50.2174 47.577V46.7698C50.2174 46.5115 50.1851 46.4792 50.0237 46.4792V46.3823H50.8309V46.4792C50.6695 46.4792 50.6372 46.5115 50.6372 46.7698V47.577Z" fill="white"/>
<path d="M51.606 47.6093C51.606 47.7385 51.606 47.803 51.6706 47.8353C51.7029 47.8676 51.7674 47.8676 51.832 47.8676C51.8966 47.8676 52.0257 47.8676 52.058 47.803C52.0903 47.7708 52.1549 47.7062 52.1872 47.5447L52.2841 47.577C52.2841 47.6739 52.2195 47.9322 52.1872 47.9968H50.9602V47.8999C51.1539 47.8999 51.1539 47.8676 51.1539 47.6093V46.8021C51.1539 46.5438 51.1217 46.5115 50.9602 46.5115V46.3823H51.7674V46.4792C51.606 46.4792 51.5737 46.5115 51.5737 46.7698V47.6093H51.606Z" fill="white"/>
<path d="M52.9936 47.6093C52.9936 47.7385 52.9936 47.803 53.0582 47.8353C53.0905 47.8676 53.1551 47.8676 53.2196 47.8676C53.2842 47.8676 53.4134 47.8676 53.4457 47.803C53.478 47.7708 53.5425 47.7062 53.5748 47.5447L53.6717 47.577C53.6717 47.6739 53.6071 47.9322 53.5748 47.9968H52.3801V47.8999C52.5739 47.8999 52.5739 47.8676 52.5739 47.6093V46.8021C52.5739 46.5438 52.5416 46.5115 52.3801 46.5115V46.3823H53.1874V46.4792C53.0259 46.4792 52.9936 46.5115 52.9936 46.7698V47.6093Z" fill="white"/>
<path d="M54.156 47.9968C53.9945 47.5447 53.7685 46.9635 53.6716 46.7052C53.5748 46.5115 53.5425 46.4792 53.4133 46.4792V46.3823H54.2206V46.4792H54.1237C54.0268 46.4792 54.0268 46.5115 54.0591 46.6084C54.0914 46.7375 54.2851 47.2218 54.382 47.4801C54.4466 47.2864 54.608 46.8021 54.6403 46.6729C54.7049 46.5115 54.6726 46.5115 54.5757 46.4792H54.5112V46.3823H55.0924V46.4792C54.9632 46.5115 54.9309 46.5115 54.8341 46.7375C54.8341 46.7698 54.5112 47.5124 54.3497 47.9968H54.156Z" fill="white"/>
<path d="M60.4846 40.5054V40.6022C60.2909 40.6345 60.2909 40.6345 60.2909 40.8928L60.3232 41.7001C60.3232 41.9584 60.3232 41.9907 60.5169 41.9907V42.0875H59.742V41.9907C59.9357 41.9584 59.9357 41.9584 59.9357 41.7001V40.8283L59.4514 42.0553H59.3222L58.8702 40.9251L58.8379 41.474C58.8379 41.7001 58.8379 41.7969 58.8379 41.8938C58.8379 41.9907 58.9025 42.023 59.0639 42.023V42.1198H58.4504V42.023C58.5796 42.023 58.6119 41.9907 58.6442 41.8938C58.6442 41.8292 58.6765 41.7001 58.6765 41.474L58.7088 40.9897C58.741 40.6668 58.7088 40.6668 58.515 40.6345V40.5377H59.0962L59.516 41.5063L59.9034 40.5377H60.4846V40.5054Z" fill="white"/>
<path d="M61.2923 41.7001C61.2923 41.9584 61.3246 41.9907 61.486 41.9907V42.0875H60.6788V41.9907C60.8402 41.9907 60.8725 41.9584 60.8725 41.7001V40.8928C60.8725 40.6345 60.8402 40.6022 60.6788 40.6022V40.5054H61.486V40.6022C61.3246 40.6022 61.2923 40.6345 61.2923 40.8928V41.7001Z" fill="white"/>
<path d="M63.1008 42.1198H62.8748L61.9707 40.9574V41.4095C61.9707 41.6678 61.9707 41.7969 62.003 41.8938C62.003 41.9907 62.0676 42.023 62.229 42.023V42.1198H61.6155V42.023C61.7124 42.023 61.777 41.9907 61.8093 41.8938C61.8093 41.8292 61.8416 41.7001 61.8416 41.4095V40.9574C61.8416 40.7637 61.8416 40.7314 61.777 40.6668C61.7447 40.6022 61.6801 40.6022 61.5833 40.6022V40.5054H62.1322L62.9394 41.5386V41.2157C62.9394 40.9574 62.9394 40.8283 62.9071 40.7314C62.9071 40.6345 62.8425 40.6022 62.6488 40.6022V40.5054H63.2623V40.6022C63.1331 40.6022 63.0685 40.6345 63.0685 40.7314C63.0685 40.796 63.0363 40.9574 63.0363 41.2157V42.1198H63.1008Z" fill="white"/>
<path d="M64.1337 41.9908H64.1983C64.2952 41.9908 64.2952 41.9585 64.2629 41.8616L64.166 41.6033H63.7462L63.6817 41.8293C63.6494 41.9262 63.6494 41.9585 63.7462 41.9585H63.8108V42.0554H63.2296V41.9585C63.3588 41.9262 63.3911 41.9262 63.4879 41.7325L63.9723 40.4732L64.1337 40.4409L64.2951 40.893C64.392 41.1836 64.5212 41.4742 64.5858 41.7325C64.6503 41.9585 64.7149 41.9585 64.8441 41.9908V42.0877H64.0691V41.9908H64.1337ZM63.8108 41.4742H64.1337L63.9723 40.9898L63.8108 41.4742Z" fill="white"/>
<path d="M60.4532 44.6382C60.4532 44.8966 60.4855 44.9288 60.6792 44.9288V45.0257H59.8074V44.9288C60.0011 44.9288 60.0334 44.8966 60.0334 44.6382V43.5727H60.0011C59.8397 43.5727 59.7751 43.605 59.7428 43.6373C59.7105 43.6696 59.6782 43.7342 59.6459 43.8633H59.5491C59.5491 43.6696 59.5814 43.4758 59.5814 43.3467H59.6459C59.6782 43.4113 59.7105 43.4113 59.7751 43.4113H60.7438C60.8083 43.4113 60.8083 43.4113 60.8729 43.3467H60.9375C60.9375 43.4435 60.9375 43.6696 60.9698 43.831H60.8729C60.8406 43.6696 60.8083 43.605 60.7761 43.5727C60.7438 43.5404 60.6469 43.5081 60.55 43.5081H60.4532V44.6382Z" fill="white"/>
<path d="M61.7443 44.6383C61.7443 44.8966 61.7766 44.9289 61.9381 44.9289V45.0258H61.1309V44.9289C61.2923 44.9289 61.3246 44.8966 61.3246 44.6383V43.8311C61.3246 43.5728 61.2923 43.5405 61.1309 43.5405V43.4436H61.9381V43.5405C61.7766 43.5405 61.7443 43.5728 61.7443 43.8311V44.6383Z" fill="white"/>
<path d="M63.8109 44.2187C63.8109 44.7353 63.4557 45.0582 62.9713 45.0582C62.487 45.0582 62.1641 44.703 62.1641 44.2509C62.1641 43.8635 62.4224 43.3792 63.0036 43.3792C63.4557 43.4114 63.8109 43.7343 63.8109 44.2187ZM62.6162 44.1864C62.6162 44.6384 62.7776 44.9613 63.0359 44.9613C63.2619 44.9613 63.3588 44.7676 63.3588 44.3155C63.3588 43.8312 63.1651 43.5406 62.9713 43.5406C62.7453 43.5406 62.6162 43.7343 62.6162 44.1864Z" fill="white"/>
<path d="M61.1955 46.3821V46.4789C61.0017 46.5112 61.0017 46.5112 61.0017 46.7696L61.034 47.5768C61.034 47.8351 61.034 47.8674 61.2278 47.8674V47.9642H60.4528V47.8674C60.6466 47.8351 60.6466 47.8351 60.6466 47.5768V46.705L60.1622 47.9319H60.0331L59.581 46.8018L59.5487 47.3508C59.5487 47.5768 59.5487 47.6736 59.5487 47.7705C59.5487 47.8674 59.6133 47.8997 59.7747 47.8997V47.9965H59.1613V47.8997C59.2904 47.8997 59.3227 47.8674 59.355 47.7705C59.355 47.7059 59.3873 47.5768 59.3873 47.3508L59.4196 46.8664C59.4519 46.5435 59.4196 46.5435 59.2258 46.5112V46.3821H59.807L60.2268 47.3508L60.6143 46.3821H61.1955Z" fill="white"/>
<path d="M61.5829 46.7696C61.5829 46.5112 61.5506 46.4789 61.3892 46.4789V46.3821H62.5516C62.5516 46.4144 62.5516 46.6081 62.5839 46.8018H62.487C62.4547 46.6727 62.4224 46.6081 62.3901 46.5758C62.3578 46.5435 62.261 46.5112 62.1318 46.5112H62.0995C62.0027 46.5112 62.0027 46.5112 62.0027 46.6081V47.0924H62.1318C62.3578 47.0924 62.3578 47.0924 62.3901 46.8987H62.487V47.4799H62.3901C62.3578 47.2539 62.3578 47.2539 62.1318 47.2539H62.0027V47.6414C62.0027 47.7705 62.0027 47.8351 62.0672 47.8674C62.0995 47.8997 62.1641 47.8997 62.2287 47.8997C62.3255 47.8997 62.4224 47.8997 62.487 47.8351C62.5193 47.8028 62.5839 47.7059 62.6161 47.5768L62.713 47.6091C62.713 47.7382 62.6484 47.9965 62.6161 48.0611H61.3569V47.9642C61.5506 47.932 61.5506 47.932 61.5506 47.6736V46.7696H61.5829Z" fill="white"/>
<path d="M63.5526 47.8995H63.6172C63.714 47.8995 63.714 47.8672 63.6817 47.7703L63.5849 47.512H63.1974L63.1328 47.738C63.1005 47.8349 63.1005 47.8672 63.1974 47.8672H63.262V47.9641H62.7131V47.8672C62.8422 47.8349 62.8745 47.8349 62.9714 47.6412L63.4557 46.3819L63.6172 46.3496L63.7786 46.8017C63.8755 47.0923 64.0046 47.3829 64.0692 47.6412C64.1338 47.8672 64.1984 47.8672 64.3275 47.8672V47.9641H63.5526V47.8995ZM63.262 47.3506H63.5849L63.4234 46.8662L63.262 47.3506Z" fill="white"/>
<path d="M54.9637 67.7251C54.9637 68.0803 54.6731 68.3709 54.3179 68.3709C53.9627 68.3709 53.6721 68.0803 53.6721 67.7251C53.6721 67.3699 53.9627 67.0793 54.3179 67.0793C54.6731 67.0793 54.9637 67.3699 54.9637 67.7251Z" fill="white"/>
<path d="M61.486 68.7906C61.486 69.1457 61.1954 69.4363 60.8402 69.4363C60.4851 69.4363 60.1945 69.1457 60.1945 68.7906C60.1945 68.4354 60.4851 68.1448 60.8402 68.1448C61.1954 68.1448 61.486 68.4354 61.486 68.7906Z" fill="white"/>
<path d="M57.8055 22.3914C57.8055 22.7466 57.5149 23.0372 57.1597 23.0372C56.8045 23.0372 56.5139 22.7466 56.5139 22.3914C56.5139 22.0362 56.8045 21.7456 57.1597 21.7456C57.5149 21.7456 57.8055 22.0362 57.8055 22.3914Z" fill="white"/>
<path d="M73.0775 28.3968C73.0775 28.752 72.7546 29.0103 72.3994 29.0103C72.0442 29.0103 71.7536 28.6874 71.7859 28.3322C71.7859 27.9771 72.1088 27.7188 72.464 27.7188C72.8191 27.751 73.0775 28.0416 73.0775 28.3968Z" fill="white"/>
<path d="M40.8856 55.9718C41.1439 56.327 41.2731 56.7145 41.2408 57.102C41.2408 57.554 41.0793 57.9092 40.2721 58.4581L37.9473 60.1048L37.5275 59.4913C37.5275 59.4913 39.9169 57.8123 39.9492 57.78C40.369 57.4894 40.5304 57.2957 40.5304 56.9728C40.5304 56.7791 40.4658 56.553 40.3044 56.327C40.0784 56.0041 39.7878 55.875 39.4972 55.875C39.2711 55.875 39.0128 56.0364 38.5608 56.3593L36.3974 57.8446L35.9777 57.2311L38.0442 55.8104C38.6254 55.3906 39.0774 55.1323 39.4972 55.1323C40.1429 55.1646 40.595 55.5521 40.8856 55.9718Z" fill="white"/>
<path d="M33.4592 51.4515L37.8828 49.9016L38.1088 50.5797L35.5902 53.6471L38.7869 52.3879L39.0129 53.0337L34.6539 54.7127L34.4278 54.0346L36.9464 50.9672L33.6852 52.0973L33.4592 51.4515Z" fill="white"/>
<path d="M37.449 47.238L32.8176 47.9258L32.9267 48.6604L37.5581 47.9726L37.449 47.238Z" fill="white"/>
<path d="M32.652 42.3782L32.6843 41.6033L37.3016 43.476L37.2693 44.2187L32.5228 45.6394V44.8645L36.3652 43.7989L32.652 42.3782Z" fill="white"/>
<path d="M36.8819 31.9165C36.2361 31.9165 35.9132 32.304 35.4934 33.0466L34.9445 34.0153L39.0452 36.2432L39.4004 35.5975L37.6891 34.6611L37.786 34.4673C38.0766 33.9507 38.1734 33.8538 38.9161 33.9184L40.2399 34.0476L40.6274 33.3695L39.0775 33.2403C38.7546 33.2081 38.5286 33.1758 38.3349 33.2403C38.2703 33.2726 38.2057 33.3049 38.1088 33.3695C38.1411 33.2726 38.1734 33.2081 38.1734 33.1112C38.1734 32.982 38.1411 32.8529 38.1088 32.7237C38.012 32.4654 37.8182 32.2394 37.5276 32.0779C37.3339 31.9811 37.1079 31.9165 36.8819 31.9165ZM36.0423 33.3372C36.3007 32.8529 36.5267 32.6591 36.785 32.6591C36.8819 32.6591 37.0433 32.6914 37.1725 32.756C37.3339 32.8529 37.4954 33.0143 37.5276 33.1758C37.5599 33.2404 37.5599 33.3049 37.5599 33.3695C37.5599 33.6601 37.3985 33.9184 37.237 34.209L37.1402 34.3705L35.8163 33.6601L36.0423 33.3372Z" fill="white"/>
<path d="M42.5934 24.866L42.0022 25.3154L44.8357 29.0427L45.4269 28.5932L42.5934 24.866Z" fill="white"/>
<path d="M44.5666 23.4891L47.5695 21.9392L47.8601 22.4881L46.6977 23.1016L48.5381 26.6857L47.8924 27.0409L46.0196 23.4568L44.8572 24.0703L44.5666 23.4891Z" fill="white"/>
<path d="M52.0896 20.5185L52.8645 20.2925L52.251 23.4245L52.7354 25.2004L52.025 25.3941L51.5407 23.6505L49.3127 21.3257L50.0877 21.0997L51.6698 22.7464L52.0896 20.5185Z" fill="white"/>
<path d="M66.3295 26.8796L68.6866 22.8757L70.9145 24.1996L70.5916 24.7485L69.0095 23.8121L68.3637 24.9099L69.849 25.7817L69.5261 26.3307L68.0408 25.4589L66.9752 27.267L66.3295 26.8796Z" fill="white"/>
<path d="M78.3083 37.3089L80.0196 35.2747L80.2779 36.0496L79.0186 37.5026L80.8914 37.9224L81.1497 38.6973L78.5666 38.0838L76.7584 40.2472L76.5001 39.4722L77.8562 37.8578L75.822 37.4057L75.5637 36.6308L78.3083 37.3089Z" fill="white"/>
<path d="M76.9848 41.8938L81.6344 41.5063L81.8604 44.0895L81.2147 44.1218L81.0532 42.2813L79.7617 42.4104L79.9231 44.1218L79.3096 44.1863L79.1482 42.4427L77.0494 42.6042L76.9848 41.8938Z" fill="white"/>
<path d="M79.0512 46.0269C78.5023 46.0269 78.018 46.1883 77.6305 46.4466C76.9202 46.9632 76.791 47.7059 76.791 48.1256C76.791 49.7078 78.2763 50.3213 79.3741 50.3213C79.9231 50.3213 80.4074 50.1599 80.7949 49.9015C81.5698 49.3203 81.6344 48.4808 81.6344 48.1902C81.6344 46.8664 80.3428 46.0269 79.0512 46.0269ZM79.4064 49.6109C78.5023 49.6109 77.4368 49.1266 77.4368 48.1902C77.4368 47.8673 77.5659 47.4153 77.9534 47.1247C78.244 46.9309 78.5992 46.8018 78.9867 46.8018C79.4387 46.8018 80.2782 46.931 80.7303 47.5444C80.8917 47.7382 80.9563 47.9965 80.9563 48.2548C80.9563 48.61 80.7949 49.0297 80.4397 49.3203C80.1814 49.5141 79.8262 49.6109 79.4064 49.6109Z" fill="white"/>
<path d="M76.3394 30.4958C75.8551 30.4958 75.3707 30.6573 74.8864 30.9479C73.9823 31.5291 73.6594 32.3363 73.6594 32.9175C73.6594 33.305 73.7563 33.6925 73.9823 34.0154C74.4666 34.7903 75.2416 34.984 75.7259 34.984C76.2103 34.984 76.7269 34.8226 77.2112 34.532C77.7924 34.1768 78.4382 33.4987 78.4382 32.5624C78.4382 32.1749 78.3413 31.7874 78.1153 31.4645C77.6633 30.851 77.0498 30.4958 76.3394 30.4958ZM75.5968 34.306C75.177 34.306 74.7895 34.1445 74.5312 33.7248C74.4021 33.531 74.3375 33.2727 74.3375 33.0467C74.3375 32.5301 74.6604 31.9812 75.2739 31.5937C75.6936 31.3354 76.0811 31.2062 76.4363 31.2062C76.8883 31.2062 77.2435 31.3999 77.5018 31.7874C77.631 32.0134 77.7278 32.2718 77.7278 32.4978C77.7278 33.0144 77.405 33.531 76.8237 33.8862C76.404 34.1768 75.9842 34.306 75.5968 34.306Z" fill="white"/>
<path d="M63.5848 20.8735C62.6161 20.8735 61.7766 21.5193 61.4215 22.6817C61.3569 22.94 61.2923 23.1983 61.2923 23.4567C61.2923 23.9087 61.3569 24.2962 61.5506 24.6514C61.9704 25.4263 62.7776 25.7169 63.3588 25.7169C63.714 25.7169 64.0369 25.6523 64.3275 25.4909C65.1024 25.0711 65.6513 24.0701 65.6513 23.1015C65.6513 22.6817 65.5544 22.2943 65.393 21.9714C65.0378 21.261 64.3275 20.8735 63.5848 20.8735ZM63.3588 25.0388C63.0359 25.0388 62.5193 24.8774 62.261 24.3608C62.1318 24.1347 62.0672 23.8118 62.0672 23.5212C62.0672 22.6817 62.6161 21.5193 63.6494 21.5193C64.2306 21.5193 64.941 21.9391 64.941 23.0046C64.941 23.6827 64.4566 25.0388 63.3588 25.0388Z" fill="white"/>
<path d="M37.7533 37.8254L38.3668 37.9868L37.6565 40.5699L33.136 39.3107L33.9109 36.7275L34.5244 36.889L33.9755 38.7617L35.2025 39.1169L35.6868 37.4056L36.3003 37.5671L35.816 39.2784L37.2367 39.6658L37.7533 37.8254Z" fill="white"/>
<path d="M38.9161 28.074C39.5619 27.3314 40.2399 27.3959 40.2399 27.3959L40.3691 28.0094C40.3691 28.0094 39.8525 28.0094 39.465 28.4615C39.3036 28.6552 39.2067 28.849 39.2067 29.0427C39.2067 29.2041 39.2713 29.3333 39.4004 29.4302C39.7233 29.7208 40.2722 29.3979 40.6274 29.2687C40.8857 29.1718 41.2732 29.0104 41.6607 29.0104C41.9513 29.0104 42.2419 29.075 42.5002 29.3333C42.8231 29.6239 42.9522 29.9468 42.9522 30.3342C42.9522 30.7217 42.7908 31.0769 42.5002 31.4321C41.919 32.1102 41.1117 32.1747 41.1117 32.1747L40.9503 31.5612C41.4346 31.4644 41.7898 31.2706 41.9836 31.0123C42.145 30.8186 42.2419 30.5926 42.2419 30.4311C42.2419 30.2697 42.1773 30.0759 42.0158 29.9468C41.8867 29.8499 41.7575 29.8176 41.5961 29.8176C41.3055 29.8176 40.9503 29.9791 40.6274 30.1082C40.0462 30.3343 39.465 30.528 38.9161 30.0436C38.6578 29.7853 38.4963 29.4947 38.4963 29.1396C38.4963 28.7844 38.6255 28.3969 38.9161 28.074Z" fill="white"/>
<path d="M75.7581 52.065L77.534 52.8722L77.4371 53.0659C77.2111 53.6148 77.1142 53.7117 76.3716 53.7117H75.0477L74.7249 54.4221H76.2747C76.5976 54.4221 76.8236 54.4221 77.0174 54.3575C77.082 54.3252 77.1465 54.2929 77.2111 54.2283C77.2111 54.2606 77.1788 54.2929 77.1788 54.3575C77.1788 54.5189 77.2111 54.7127 77.2757 54.8418C77.5017 55.3262 78.0506 55.5845 78.4704 55.5845C79.213 55.5845 79.5036 55.1324 79.8588 54.3252C79.8588 54.2929 80.2786 53.3242 80.2786 53.3242L76.0487 51.4192L75.7581 52.065ZM78.5027 54.8418C78.2766 54.8418 77.9215 54.7127 77.7923 54.3575C77.76 54.2606 77.76 54.1638 77.76 54.0992C77.76 53.8409 77.8892 53.5826 78.0183 53.2919L78.0829 53.0982L79.4391 53.7117L79.2776 54.0669C79.0193 54.6804 78.8578 54.8418 78.5027 54.8418Z" fill="white"/>
<path d="M73.3039 56.4887C72.8195 57.1022 72.4644 57.6511 72.4644 58.3292C72.4644 58.9104 72.7227 59.5884 73.4007 60.1373C73.8528 60.4925 74.3694 60.6863 74.886 60.6863C75.5318 60.6863 76.0484 60.4925 76.8557 59.4916L77.5983 58.5552L73.9497 55.6492L73.3039 56.4887ZM74.9506 60.0082C74.5954 60.0082 74.2403 59.879 73.8528 59.5884C73.4976 59.2978 73.1101 58.8458 73.1101 58.2646C73.1101 57.8448 73.3362 57.4574 73.659 57.0376L73.9819 56.6501L76.6619 58.7812L76.4682 59.0395C75.9516 59.653 75.5964 60.0082 74.9506 60.0082Z" fill="white"/>
<path d="M83.9269 44.703C83.9269 29.9792 71.9154 18 57.1916 18C42.4355 18 30.4563 29.9792 30.4563 44.703C30.4563 53.5502 34.8153 61.7516 42.1126 66.7564C42.823 69.4364 45.277 71.4061 48.183 71.4061C48.9579 71.4061 49.7329 71.2446 50.4432 70.9863C51.4119 71.3092 52.4451 71.5675 53.4461 71.7935C53.1555 72.6008 52.7357 73.3757 52.3483 74.0538C52.3483 74.0538 52.3483 74.0538 52.3806 74.0538H52.3483L52.8972 74.6027C53.0263 74.5381 53.1878 74.4735 53.3815 74.4735C53.9304 74.4735 54.3825 74.9256 54.3825 75.4745C54.3825 76.0234 53.9304 76.4754 53.3815 76.4754C52.8972 76.4754 52.4774 76.1526 52.2514 75.8297C52.2514 75.8297 52.1222 76.2817 52.1222 76.8629C52.1222 78.768 54.221 80.9636 57.127 81.9C60.0331 80.9959 62.1318 78.8002 62.1318 76.8629C62.1318 76.2171 62.0027 75.8297 62.0027 75.8297C61.7767 76.088 61.4215 76.4754 60.8726 76.4754C60.3237 76.4754 59.8716 76.0234 59.8716 75.4745C59.8716 74.9256 60.3237 74.4735 60.8726 74.4735C61.0663 74.4735 61.2277 74.5381 61.3892 74.635L61.9381 74.086H61.9704C61.6798 73.3434 61.4538 72.6976 61.2923 72.0518C66.1034 71.4061 70.1718 69.3719 73.3684 65.9815C80.0845 60.8475 83.9269 53.0982 83.9269 44.703ZM48.183 70.6634C45.1478 70.6634 42.6616 68.1772 42.6616 65.142C42.6616 64.1733 42.9199 63.3015 43.3396 62.4943C43.6302 62.7526 43.9208 63.0109 44.2437 63.3015C43.9854 63.8827 43.824 64.4962 43.824 65.1743C43.824 66.821 44.6635 68.2094 46.2456 69.1458C47.1497 69.6947 48.183 70.1791 49.2808 70.5988C48.9256 70.6311 48.5704 70.6634 48.183 70.6634ZM57.1916 62.6234C56.0615 62.6234 54.9314 62.5266 53.8013 62.3005C52.7357 60.2018 50.5401 58.8456 48.183 58.8456C47.6018 58.8456 47.0529 58.9425 46.504 59.0716C41.9512 55.7136 39.2389 50.3213 39.2389 44.6707C39.2389 34.7903 47.2789 26.7503 57.1593 26.7503C67.0398 26.7503 75.0798 34.7903 75.0798 44.6707C75.112 54.5835 67.0721 62.6234 57.1916 62.6234ZM61.1632 62.9463C60.6143 63.7213 60.2914 64.7868 60.2268 65.8523C58.5155 65.4003 56.9979 64.8191 55.6418 64.2056C55.9001 63.7213 56.6427 63.3661 57.1916 63.3661C58.5478 63.3661 59.8716 63.2046 61.1632 62.9463ZM55.4803 63.3015C55.2543 63.463 55.0605 63.689 54.9314 63.8827C54.2533 63.5598 53.4138 63.1401 52.8326 62.8172C53.6398 63.0109 54.6731 63.2046 55.4803 63.3015ZM48.183 59.6206C50.0235 59.6206 51.7671 60.5569 52.768 62.0745C51.8962 61.8485 51.0244 61.5579 50.1526 61.2027H50.1203C49.5391 60.9121 48.8933 60.783 48.2153 60.783C46.73 60.783 45.4384 61.4933 44.6312 62.5912C44.3083 62.3974 43.9531 62.2037 43.6302 62.0099C44.6635 60.5569 46.3102 59.6206 48.183 59.6206ZM60.8726 73.6986C59.8716 73.6986 59.0644 74.4089 59.0644 75.4745C59.0644 76.5077 59.8716 77.2504 60.8726 77.2504C61.034 77.2504 61.1632 77.2181 61.2923 77.1858C61.0986 78.6711 59.355 80.3178 57.127 81.0605C54.9314 80.3178 53.1878 78.6388 52.9618 77.1858C53.0909 77.2181 53.2524 77.2504 53.3815 77.2504C54.4471 77.2504 55.1897 76.5077 55.1897 75.4745C55.1897 74.5058 54.4148 73.7309 53.4461 73.6986C53.7367 73.1497 54.0273 72.5685 54.2533 71.9227C55.4803 72.1487 56.675 72.2456 57.8051 72.2456C58.7415 72.2456 59.6133 72.181 60.4851 72.1164C60.6143 72.633 60.7757 73.1497 60.9694 73.6986C60.9372 73.6986 60.9049 73.6986 60.8726 73.6986ZM57.8051 71.5029C54.221 71.5029 49.7329 70.2759 46.6654 68.4678C45.729 67.9188 44.6312 66.8856 44.6312 65.142C44.6312 64.6577 44.7281 64.2056 44.8895 63.8181C46.0519 64.7545 47.2143 65.6586 47.957 66.0784C48.1184 66.1752 48.2153 66.2075 48.4413 66.2075C48.9256 66.2075 49.3131 65.8201 49.3131 65.3357C49.3131 64.9805 49.1194 64.6577 48.7965 64.5285C48.1507 64.2379 46.8268 63.689 45.4061 62.9463C46.0842 62.0745 47.1174 61.4933 48.2798 61.4933C48.8288 61.4933 49.3454 61.6225 49.8297 61.8485L50.7984 62.4297C53.9304 64.3348 61.9704 69.2427 71.6571 66.5304C67.9439 69.8562 63.4234 71.5029 57.8051 71.5029ZM72.8518 65.368C68.4928 66.9179 64.4567 66.7887 61.0017 66.0138C61.1309 64.4639 61.7444 62.8172 62.7453 62.4943C70.3656 60.1372 75.9193 53.0336 75.9193 44.6707C75.9193 34.3705 67.5241 26.0077 57.2239 26.0077C46.8914 26.0077 38.5286 34.3705 38.5286 44.6707C38.5286 50.3859 41.2085 55.8428 45.6967 59.3623C44.6312 59.8466 43.7271 60.5892 43.049 61.5256C42.6938 61.2996 42.371 61.0413 42.0804 60.8153L41.9189 60.9767C42.1126 61.235 42.4355 61.5579 42.823 61.9131C42.2741 62.8495 41.9512 63.9473 41.9512 65.1097C41.9512 65.3034 41.9512 65.4649 41.9835 65.6586C35.2674 60.783 31.2958 53.0013 31.2958 44.703C31.2958 30.399 42.9522 18.7426 57.2562 18.7426C71.5602 18.7426 83.2166 30.3667 83.2166 44.703C83.1197 52.9044 79.3742 60.4278 72.8518 65.368Z" fill="white"/>
<path d="M117.378 59.9434C117.378 67.0793 111.857 72.2778 104.979 72.2778C97.9726 72.2778 92.5804 67.047 92.5804 60.2017C92.5804 53.0659 98.1018 47.8673 104.979 47.8673C111.986 47.835 117.378 53.0982 117.378 59.9434ZM113.439 60.0726C113.439 53.5825 110.275 49.0297 104.979 49.0297C99.1996 49.0297 96.5196 54.4866 96.5196 60.0726C96.5196 66.5627 99.684 71.0831 104.979 71.0831C110.759 71.0831 113.439 65.6263 113.439 60.0726Z" fill="white"/>
<path d="M193.096 59.9434C193.096 67.0793 187.575 72.2778 180.697 72.2778C173.69 72.2778 168.298 67.047 168.298 60.2017C168.298 53.0659 173.82 47.8673 180.697 47.8673C187.736 47.835 193.096 53.0982 193.096 59.9434ZM189.157 60.0726C189.157 53.5825 185.993 49.0297 180.697 49.0297C174.917 49.0297 172.237 54.4866 172.237 60.0726C172.237 66.5627 175.402 71.0831 180.697 71.0831C186.477 71.0831 189.157 65.6263 189.157 60.0726Z" fill="white"/>
<path d="M202.686 60.1695H205.625C210.081 60.1695 211.082 57.3604 211.082 54.6481C211.082 52.6139 210.145 50.7089 208.046 49.8048C206.949 49.3527 205.883 49.3527 204.43 49.3527H202.654V60.1695H202.686ZM208.143 63.9796C206.755 62.01 206.238 61.2997 204.527 61.2997H202.686V69.3073C202.686 69.9531 202.945 70.276 203.687 70.4052L206.367 70.9864V71.8582H195.809V70.9864L198.231 70.4052C198.941 70.2114 199.199 69.9531 199.199 69.3073V50.8057C199.199 50.1599 198.941 49.9016 198.231 49.6756L195.809 49.0944V48.2549H206.109C208.272 48.2549 209.79 48.4486 211.017 48.9007C213.568 49.9016 215.021 52.3233 215.021 54.6158C215.021 57.5218 212.857 59.9435 209.241 60.783V60.9122C209.951 61.2351 210.371 61.6871 212.922 65.0452L216.151 69.3073C216.603 69.9531 217.216 70.3406 217.927 70.502L220.284 71.0187V71.8905H214.633C213.988 71.8905 213.632 71.6967 213.051 70.8895L208.143 63.9796Z" fill="white"/>
<path d="M161.873 56.3271H162.841V64.2057H161.873L161.291 61.8486C161.098 61.0091 160.581 60.6539 159.774 60.6539H154.059V69.3073C154.059 69.9531 154.317 70.276 155.06 70.4052L157.74 70.9864V71.8582H147.181V70.9864L149.603 70.4052C150.313 70.2114 150.604 69.9531 150.604 69.3073V50.8057C150.604 50.1599 150.345 49.9016 149.603 49.7079L147.181 49.1267V48.2549H165.037V54.1638H164.036L162.938 50.612C162.68 49.7079 162.292 49.3527 161.485 49.3527H154.059V59.5238H159.774C160.549 59.5238 161.033 59.2009 161.291 58.3291L161.873 56.3271Z" fill="white"/>
<path d="M222.156 71.8582V70.9864L224.578 70.4052C225.288 70.2114 225.579 69.9531 225.579 69.3073V50.8057C225.579 50.1599 225.321 49.9016 224.578 49.7079L222.156 49.1267V48.2549H233.264C236.267 48.2549 238.462 48.6424 240.206 49.4496C244.662 51.4838 246.696 55.8751 246.696 60.2018C246.696 64.3994 245.114 68.3387 241.11 70.4375C239.269 71.4384 236.719 71.8905 233.361 71.8905H222.156V71.8582ZM229.066 49.3527V69.6948C229.066 70.5666 229.26 70.7603 230.132 70.7603H233.005C235.75 70.7603 237.784 70.3729 239.237 69.3073C241.659 67.5314 242.789 64.3348 242.789 60.2664C242.789 56.2626 241.659 52.3233 238.398 50.4183C237.009 49.611 235.233 49.3527 232.489 49.3527H229.066Z" fill="white"/>
<path d="M126.645 71.0185V71.8903H118.315V71.0185L120.413 70.5018C121.188 70.3081 121.737 70.0498 122.254 69.4363L129.487 60.3954L122.254 50.8055C121.802 50.1598 121.221 49.8369 120.478 49.6108L118.508 49.0942V48.2224H128.873V49.0942L126.645 49.5463C125.87 49.6754 126.064 49.9983 126.452 50.5472L131.779 58.1674H131.908L137.365 50.5472C137.753 50.0306 137.882 49.8369 137.171 49.6431L135.073 49.1265V48.2547H143.403V49.1265L141.304 49.6431C140.53 49.8369 139.981 50.0952 139.464 50.6764L132.651 59.2653L140.207 69.3071C140.659 69.9529 141.272 70.2758 141.983 70.5018L143.952 71.0185V71.8903H133.587V71.0185L135.815 70.5664C136.59 70.4373 136.461 70.179 136.074 69.63L130.294 61.4932H130.165L124.32 69.5655C123.933 70.0821 123.804 70.2758 124.514 70.4696L126.645 71.0185Z" fill="white"/>
<path d="M101.783 37.1151C101.137 37.7609 100.136 38.213 98.7803 38.213C97.5856 38.213 96.4878 37.8255 95.7451 37.0829C94.7119 36.0496 94.7764 34.758 94.7764 33.3696V26.8149H96.1003V33.8862C96.1003 34.7903 96.068 35.6621 96.7784 36.3402C97.2627 36.8245 98.0053 37.0829 98.8449 37.0829C99.6844 37.0829 100.33 36.7923 100.75 36.3725C101.525 35.5976 101.46 34.758 101.46 32.7561V26.8472H102.784V32.4332C102.784 34.4997 102.849 36.0496 101.783 37.1151Z" fill="white"/>
<path d="M113.665 37.9869L108.273 28.8169L108.305 37.9869H107.078V26.8149H108.467L113.859 36.0496L113.827 26.8149H115.054V37.9869H113.665Z" fill="white"/>
<path d="M121.092 26.8149H119.735V38.0192H121.092V26.8149Z" fill="white"/>
<path d="M129.454 37.9869H127.904L124.03 26.8149H125.45L128.711 36.6954L132.07 26.8149H133.361L129.454 37.9869Z" fill="white"/>
<path d="M136.429 37.9869V26.8149H142.499V27.9128H137.753V31.626H142.209V32.7238H137.753V36.8568H142.628V37.9869H136.429Z" fill="white"/>
<path d="M151.152 28.494C150.507 27.8483 149.667 27.8805 148.763 27.8805H147.536V32.0781H147.988C149.118 32.0781 150.345 32.1427 151.088 31.3678C151.443 31.0126 151.669 30.4637 151.669 29.9147C151.669 29.269 151.411 28.7523 151.152 28.494ZM152.379 37.987L151.088 35.081C150.281 33.3051 149.925 33.1114 148.311 33.1114H147.536V37.987H146.212V26.7827H148.634C150.119 26.7827 151.249 26.7827 152.121 27.6545C152.67 28.2034 152.993 28.9461 152.993 29.8825C152.993 30.6574 152.767 31.3032 152.282 31.8198C151.895 32.2396 151.217 32.627 150.474 32.6916C150.862 32.7239 151.185 32.9176 151.411 33.1437C151.701 33.4343 151.927 33.9186 152.25 34.629L153.768 37.987H152.379Z" fill="white"/>
<path d="M168.201 26.8149H166.845V38.0192H168.201V26.8149Z" fill="white"/>
<path d="M175.886 27.9128V37.9869H174.53V27.9128H171.204V26.8149H179.18V27.9128H175.886Z" fill="white"/>
<path d="M185.637 33.5633V37.9869H184.314V33.5633L180.762 26.8149H182.279L185.056 32.0458L187.736 26.8149H189.189L185.637 33.5633Z" fill="white"/>
<path d="M201.749 27.7512C199.554 27.7512 198.133 29.5917 198.133 32.4008C198.133 35.1777 199.715 37.0827 201.814 37.0827C204.139 37.0827 205.462 35.0808 205.462 32.304C205.462 29.5594 203.913 27.7512 201.749 27.7512ZM201.749 38.2129C198.843 38.2129 196.744 35.8235 196.744 32.4654C196.744 29.0105 198.843 26.6211 201.878 26.6211C204.817 26.6211 206.883 29.0105 206.883 32.3685C206.851 35.8235 204.752 38.2129 201.749 38.2129Z" fill="white"/>
<path d="M211.856 27.9128V31.626H216.183V32.6915H211.856V37.9869H210.532V26.8149H216.474V27.9128H211.856Z" fill="white"/>
<path d="M156.48 29.5272C156.48 27.8159 157.869 26.5889 159.871 26.5889C161.905 26.5889 162.906 27.6544 163.003 27.7513L162.357 28.5585C162.099 28.3648 161.195 27.719 159.968 27.719C158.547 27.719 157.74 28.4616 157.74 29.4626C157.74 29.9469 157.933 30.3021 158.256 30.5927C158.644 30.9479 159.193 31.2062 159.806 31.4645C160.549 31.8197 161.582 32.2072 162.26 32.9175C162.744 33.4019 163.1 34.0476 163.1 34.9194C163.1 36.7922 161.808 38.2129 159.483 38.2129C157.514 38.2129 156.254 37.1151 156.125 37.0182L156.739 36.1141C157.062 36.3402 158.289 37.0828 159.451 37.0828C161.13 37.0828 161.776 36.1464 161.776 35.0486C161.776 34.532 161.55 34.1122 161.195 33.7893C160.678 33.2727 159.871 32.9498 159.128 32.5946C158.385 32.2394 157.643 31.8843 157.126 31.3354C156.836 31.0125 156.48 30.4313 156.48 29.5272Z" fill="white"/>
</svg>
