<svg width="278" height="99" viewBox="0 0 278 99" fill="none" xmlns="http://www.w3.org/2000/svg">
<path fill-rule="evenodd" clip-rule="evenodd" d="M227.776 70.418H233.752L244.091 44.2642H238.176L233.902 57.2902L229.4 44.2642H222.798L230.659 63.1557L227.776 70.418ZM198.115 50.4729V63.8796H192.086V44.265H196.323L197.582 45.978C199.223 44.6041 200.977 43.8072 203 43.8072C205.709 43.8072 207.769 44.6077 209.029 46.5887C210.86 44.9118 212.807 43.8072 215.288 43.8072C219.942 43.8072 222.652 46.2073 222.652 52.7204V63.8796H216.623V53.4059C216.623 50.397 215.401 49.5206 213.455 49.5206C212.31 49.5206 211.358 49.825 210.288 50.5113C210.365 51.1968 210.403 51.9203 210.403 52.7168V63.8763H204.374V53.4059C204.374 50.397 203.152 49.5206 201.168 49.5206C200.061 49.5206 199.146 49.7871 198.115 50.4729ZM177.088 52.1488H184.834C184.414 49.5972 183.041 48.3777 180.98 48.3777C179.224 48.3777 177.546 49.4067 177.088 52.1488ZM181.4 64.2603C175.6 64.2603 170.944 61.404 170.944 53.8618C170.944 46.815 175.447 43.7689 180.637 43.7689C186.895 43.7689 189.68 48.1485 189.68 55.0423H177.049C177.469 58.4316 179.569 59.4226 182.355 59.4226C185.048 59.4226 187.156 58.7592 188.787 57.664L187.968 62.4373C186.412 63.6377 184.543 64.2596 181.4 64.2596L181.4 64.2603ZM158.951 59.1949C160.327 59.1949 161.355 58.9656 162.423 58.1662V49.6348C161.469 49.0629 160.516 48.7971 159.142 48.7971C156.204 48.7971 154.525 50.7774 154.525 54.0904C154.525 57.3285 156.242 59.1956 158.951 59.1956L158.951 59.1949ZM163.605 62.4319C162.041 63.6128 160.249 64.3362 157.691 64.3362C152.311 64.3362 148.419 61.0229 148.419 54.2046C148.419 47.4254 152.884 43.7689 158.607 43.7689C159.943 43.7689 161.241 43.9598 162.423 44.4197V36.0908H168.452V63.8789H164.636L163.605 62.4319ZM122.874 52.2623V37.7251H129.131V52.1484C129.131 57.3281 131.459 58.3944 134.664 58.3944C138.137 58.3944 139.93 56.8707 139.93 52.1484V37.7251H146.226V52.2619C146.226 60.8324 142.487 64.4122 134.36 64.4122C126.803 64.4122 122.873 61.3273 122.873 52.2619L122.874 52.2623Z" fill="white"/>
<path fill-rule="evenodd" clip-rule="evenodd" d="M106.625 53.624C106.377 53.423 106.083 53.286 105.768 53.2253C103.917 55.0507 101.657 56.9737 99.6515 58.2663C98.726 58.8747 97.5615 59.179 96.7906 59.179C95.0163 59.179 94.2453 57.5054 94.0137 54.8414C93.7053 51.2679 93.4967 46.9877 93.4967 40.3725C93.4967 33.5877 91.9402 28.9753 87.7942 28.6138C87.6188 28.5983 87.4416 28.5878 87.2571 28.5878C84.7115 28.5878 83.4773 29.8801 81.8579 33.1496C80.4695 35.9625 78.3137 40.0681 74.2997 47.8234C70.8286 54.515 66.9727 60.446 63.6554 64.5516C62.7318 65.6895 62.0017 66.471 61.3156 66.9163C60.857 67.2149 60.4167 67.3645 59.9538 67.3645C58.6446 67.3645 57.6892 66.2714 57.3698 63.7267C57.2938 63.122 57.254 62.4352 57.254 61.662C57.254 56.416 59.2636 47.9001 62.7299 35.3542C65.2755 26.2339 64.1958 20 58.6417 20H58.5796L58.5759 20.0007C57.3183 20.0152 56.2759 20.4659 55.2711 21.2478C54.2824 22.0177 53.2926 23.6819 52.3689 25.9191C51.3276 28.4385 44.9948 41.005 34.9162 47.4782C34.7975 49.9399 36.206 52.3997 39.0596 52.6664C41.6538 52.9101 43.5026 51.8267 45.8776 50.2482C45.5591 51.653 45.2454 53.0589 44.9364 54.4658L44.606 55.9623C44.2927 57.3723 44.0531 58.7973 43.8881 60.2316C42.4631 72.7989 48.3545 78.9999 55.2495 78.9999C56.4019 78.9999 57.5441 78.8643 58.6775 78.5791C66.2745 76.6735 73.5886 68.0524 82.2445 48.207C82.1129 50.3657 82.0994 52.382 82.194 54.2529C82.764 65.6269 87.3115 69.0396 93.74 69.0396C98.5996 69.0396 103.15 66.531 105.463 63.4133C107.16 61.2083 107.855 58.7749 107.855 56.8707C107.855 55.3952 107.381 54.2175 106.629 53.6196" fill="white"/>
</svg>
