<svg width="59" height="58" viewBox="0 0 59 58" fill="none" xmlns="http://www.w3.org/2000/svg">
<path d="M1.00906 20.7488C1.00906 20.7488 -0.39664 19.7356 1.2902 18.3827L5.21964 14.8689C5.21964 14.8689 6.34421 13.6859 7.53289 14.7166L43.7959 42.1713V55.3365C43.7959 55.3365 43.7784 57.404 41.1252 57.1754L1.00906 20.7488Z" fill="#2489CA"/>
<path d="M10.3558 29.2349L1.009 37.7323C1.009 37.7323 0.048316 38.4469 1.009 39.7238L5.34843 43.6707C5.34843 43.6707 6.37918 44.7778 7.90185 43.5184L17.8109 36.0048L10.3558 29.2349Z" fill="#1070B3"/>
<path d="M26.7649 29.3053L43.9068 16.2161L43.7954 3.12125C43.7954 3.12125 43.0633 0.263237 40.6212 1.75088L17.8105 22.5116L26.7649 29.3053Z" fill="#0877B9"/>
<path d="M41.1256 57.1934C42.1213 58.2123 43.3278 57.8786 43.3278 57.8786L56.6863 51.296C58.3963 50.1305 58.1561 48.6841 58.1561 48.6841V9.37577C58.1561 7.64796 56.3873 7.05094 56.3873 7.05094L44.8095 1.46969C42.2795 -0.093951 40.6221 1.75083 40.6221 1.75083C40.6221 1.75083 42.7536 0.216581 43.7963 3.12121V55.0966C43.7979 55.4511 43.7199 55.8014 43.568 56.1217C43.2634 56.7365 42.6016 57.3104 41.0145 57.0702L41.1256 57.1934Z" fill="#3C99D4"/>
</svg>
