<svg width="32" height="33" viewBox="0 0 32 33" fill="none" xmlns="http://www.w3.org/2000/svg">
<path fill-rule="evenodd" clip-rule="evenodd" d="M0 16.4004C0 7.56384 7.16344 0.400391 16 0.400391C24.8366 0.400391 32 7.56384 32 16.4004C32 25.2369 24.8366 32.4004 16 32.4004C7.16344 32.4004 0 25.2369 0 16.4004Z" fill="#4E4D4D"/>
<path fill-rule="evenodd" clip-rule="evenodd" d="M22.6677 10.8999C23.4021 11.1014 23.9804 11.6952 24.1767 12.4492C24.5333 13.8157 24.5333 16.667 24.5333 16.667C24.5333 16.667 24.5333 19.5182 24.1767 20.8849C23.9804 21.6389 23.4021 22.2326 22.6677 22.4342C21.3369 22.8004 16 22.8004 16 22.8004C16 22.8004 10.6631 22.8004 9.33218 22.4342C8.59783 22.2326 8.0195 21.6389 7.82323 20.8849C7.46667 19.5182 7.46667 16.667 7.46667 16.667C7.46667 16.667 7.46667 13.8157 7.82323 12.4492C8.0195 11.6952 8.59783 11.1014 9.33218 10.8999C10.6631 10.5337 16 10.5337 16 10.5337C16 10.5337 21.3369 10.5337 22.6677 10.8999ZM14.4 14.267V19.6003L18.6667 16.9337L14.4 14.267Z" fill="white"/>
</svg>
